HIERARCHY
ROOT Hips
{
	OFFSET 0.00000 0.00000 0.00000
	CHANNELS 6 Xposition Yposition Zposition Zrotation Yrotation Xrotation 
	JOINT LHipJoint
	{
		OFFSET 0 0 0
		CHANNELS 3 Zrotation Yrotation Xrotation
		JOINT LeftHip
		{
			OFFSET 1.64577 -1.42384 0.94276
			CHANNELS 3 Zrotation Yrotation Xrotation
			JOINT LeftKnee
			{
				OFFSET 2.11538 -5.81197 0.00000
				CHANNELS 3 Zrotation Yrotation Xrotation
				JOINT LeftAnkle
				{
					OFFSET 2.36541 -6.49893 0.00000
					CHANNELS 3 Zrotation Yrotation Xrotation
					JOINT LeftToe
					{
						OFFSET 0.17759 -0.48793 1.73865
						CHANNELS 3 Zrotation Yrotation Xrotation
						End Site
						{
							OFFSET 0.00000 -0.00000 0.91205
						}
					}
				}
			}
		}
	}
	JOINT RHipJoint
	{
		OFFSET 0 0 0
		CHANNELS 3 Zrotation Yrotation Xrotation
		JOINT RightHip
		{
			OFFSET -1.43750 -1.42384 0.94276
			CHANNELS 3 Zrotation Yrotation Xrotation
			JOINT RightKnee
			{
				OFFSET -2.10480 -5.78291 0.00000
				CHANNELS 3 Zrotation Yrotation Xrotation
				JOINT RightAnkle
				{
					OFFSET -2.34880 -6.45329 0.00000
					CHANNELS 3 Zrotation Yrotation Xrotation
					JOINT RightToe
					{
						OFFSET -0.22842 -0.62757 1.80469
						CHANNELS 3 Zrotation Yrotation Xrotation
						End Site
						{
							OFFSET -0.00000 -0.00000 0.95886
						}
					}
				}
			}
		}
	}
	JOINT lowerback
	{
		OFFSET 0 0 0
		CHANNELS 3 Zrotation Yrotation Xrotation
		JOINT Chest
		{
			OFFSET 0.06217 1.93758 -0.49272
			CHANNELS 3 Zrotation Yrotation Xrotation
			JOINT Chest2
			{
				OFFSET -0.03114 2.03621 -0.05830
				CHANNELS 3 Zrotation Yrotation Xrotation
				JOINT lowerneck
				{
					OFFSET 0 0 0
					CHANNELS 3 Zrotation Yrotation Xrotation
					JOINT Neck
					{
						OFFSET 0.04421 1.41010 0.26562
						CHANNELS 3 Zrotation Yrotation Xrotation
						JOINT Head
						{
							OFFSET -0.13407 1.43847 0.06181
							CHANNELS 3 Zrotation Yrotation Xrotation
							End Site
							{
								OFFSET -0.04980 1.45844 -0.00689
							}
						}
					}
				}
				JOINT LeftCollar
				{
					OFFSET 0 0 0
					CHANNELS 3 Zrotation Yrotation Xrotation
					JOINT LeftShoulder
					{
						OFFSET 2.18382 1.47753 -0.35694
CHANNELS 3 Zrotation Xrotation Yrotation
						JOINT LeftElbow
						{
OFFSET 0 -5.054600 0.000000
CHANNELS 3 Zrotation Xrotation Yrotation
							JOINT LeftWrist
							{
OFFSET 0 -3.390130 0.000000
CHANNELS 3 Zrotation Xrotation Yrotation
								JOINT lhand
								{
									OFFSET 0 0 0
CHANNELS 3 Zrotation Xrotation Yrotation
									JOINT LFingers
									{
OFFSET 0 -0.572420 -0.000000
CHANNELS 3 Zrotation Xrotation Yrotation
										End Site
										{
OFFSET 0 -0.461500 -0.000000
										}
									}
								}
								JOINT LThumb
								{
OFFSET 0 0.000000 0.000000
CHANNELS 3 Zrotation Xrotation Yrotation
									End Site
									{
OFFSET 0 -0.468550 0.468550
									}
								}
							}
						}
					}
				}
				JOINT RightCollar
				{
					OFFSET 0 0 0
					CHANNELS 3 Zrotation Yrotation Xrotation
					JOINT RightShoulder
					{
						OFFSET -2.06033 1.72839 -0.47437
CHANNELS 3 Zrotation Xrotation Yrotation
						JOINT RightElbow
						{
OFFSET 0 -5.070100 0.000000
CHANNELS 3 Zrotation Xrotation Yrotation
							JOINT RightWrist
							{
OFFSET 0 -3.149570 -0.000000
CHANNELS 3 Zrotation Xrotation Yrotation
								JOINT rhand
								{
									OFFSET 0 0 0
CHANNELS 3 Zrotation Xrotation Yrotation
									JOINT RFingers
									{
OFFSET 0 -0.718190 -0.000000
CHANNELS 3 Zrotation Xrotation Yrotation
										End Site
										{
OFFSET 0 -0.579020 -0.000000
										}
									}
								}
								JOINT RThumb
								{
OFFSET 0 0.000000 0.000000
CHANNELS 3 Zrotation Xrotation Yrotation
									End Site
									{
OFFSET 0 -0.587860 0.587860
									}
								}
							}
						}
					}
				}
			}
		}
	}
}
MOTION
Frames: 6
Frame Time: 0.008333333333333333
12.106200 15.249700 3.420300 -178.657000 3.178500 177.657000 0.000000 0.000000 0.000000 -17.607200 -12.975900 -18.994400 6.388000 14.794100 46.519700 1.100000 5.208500 -22.335100 0.586000 -4.901400 -13.627600 0.000000 0.000000 0.000000 29.645300 14.806600 3.632500 -1.816000 -8.471800 24.156500 -2.232200 -15.393800 -37.106700 -0.462400 4.361800 -12.096800 2.615400 0.965700 7.920500 -0.282800 1.833300 4.525100 -1.893400 1.128700 0.324800 6.766800 5.676700 -10.531900 -1.617000 5.518400 26.122500 -1.150100 2.473500 10.337900 -0.000000 0.000000 0.000000 5.319400 2.491500 -30.848500 26.127000 -37.333900 8.964600 20.960100 -1.377900 -10.070800 0.000000 0.000000 0.000000 -7.125000 0.000000 0.000000 -5.350800 40.690700 -0.570400 -0.000000 0.000000 0.000000 -1.960600 7.724400 17.259800 -18.130700 -28.324200 -4.611100 -21.603100 -19.816900 -3.097100 0.000000 0.000000 0.000000 7.125000 0.000000 -0.000000 3.814700 26.645200 1.702300
12.094757 15.257874 3.394871 -178.648826 3.240438 177.676072 0.000000 0.000000 0.000000 -17.535817 -13.457417 -18.980868 6.078946 14.503846 45.296654 1.085923 5.661137 -22.497301 0.672005 -5.240878 -14.597082 0.000000 0.000000 0.000000 29.613150 14.742755 3.966892 -1.750339 -8.325220 23.706497 -2.223027 -15.374728 -37.044853 -0.448596 4.296865 -11.913348 2.839993 1.047527 7.871549 -0.339652 1.973977 4.700833 -2.082483 1.218337 0.551028 6.483448 5.624480 -10.678208 -1.257361 5.322415 26.703100 -1.000795 2.371421 10.551413 0.000000 0.000000 0.000000 5.289158 2.609836 -31.138210 26.498446 -37.696446 9.190828 21.375411 -1.643815 -10.340893 0.000000 0.000000 0.000000 -7.125000 0.000000 0.000000 -5.025036 41.015102 -0.495475 0.000000 0.000000 0.000000 -1.998562 7.690707 17.730782 -18.400974 -28.667492 -4.740152 -22.275063 -21.093620 -2.995293 0.000000 0.000000 0.000000 7.125000 0.000000 0.000000 3.303758 26.740377 1.466355
12.086334 15.266211 3.367319 -178.614529 3.293069 177.743309 0.000000 0.000000 0.000000 -17.395533 -14.031918 -18.878190 5.735769 14.165752 43.908784 1.052335 6.304231 -22.631011 0.749438 -5.528027 -15.421171 0.000000 0.000000 0.000000 29.634146 14.747239 4.209280 -1.705249 -8.222886 23.393315 -2.205365 -15.494111 -37.048151 -0.466793 4.381896 -12.153586 2.900661 1.162580 7.886029 -0.392504 2.138819 4.757295 -2.181358 1.307730 0.615371 6.310794 5.562545 -10.559443 -0.762450 5.070101 27.060751 -0.833694 2.273015 10.631941 0.000000 0.000000 0.000000 5.426024 2.880994 -31.374447 26.661066 -37.854003 9.290356 21.169145 -1.506367 -10.358485 0.000000 0.000000 0.000000 -7.125000 0.000000 0.000000 -5.209252 41.014837 -0.513615 0.000000 0.000000 0.000000 -1.891130 7.723873 17.819218 -18.576714 -28.889310 -4.824713 -22.649625 -21.860114 -3.007123 0.000000 0.000000 0.000000 7.125000 0.000000 0.000000 3.017886 26.719223 1.340455
12.077527 15.274638 3.338080 -178.611347 3.361101 177.878998 0.000000 0.000000 0.000000 -17.250978 -14.685273 -18.731866 5.387159 13.804672 42.465135 1.035101 6.805580 -22.825059 0.701213 -5.350439 -14.911329 0.000000 0.000000 0.000000 29.601417 14.773175 4.348072 -1.667111 -8.135166 23.125519 -2.177038 -15.659425 -37.033853 -0.507499 4.565304 -12.673043 2.786245 1.200221 7.820047 -0.397956 2.184293 4.814037 -2.122209 1.332393 0.708892 6.301658 5.570739 -10.460206 -0.646258 5.006207 27.303484 -0.803195 2.240883 10.697874 0.000000 0.000000 0.000000 5.450834 3.128188 -31.343981 26.641235 -37.834902 9.278184 21.102577 -1.446070 -10.313987 0.000000 0.000000 0.000000 -7.125000 0.000000 0.000000 -5.261288 40.961464 -0.525631 0.000000 0.000000 0.000000 -1.861825 7.634142 17.758627 -18.669947 -29.006462 -4.869782 -22.699834 -21.940827 -3.037169 0.000000 0.000000 0.000000 7.125000 0.000000 0.000000 2.979184 26.685637 1.325615
12.067207 15.282198 3.307398 -178.810409 3.484046 178.050912 0.000000 0.000000 0.000000 -17.319392 -15.408797 -18.489959 5.038841 13.424451 40.984396 1.023644 7.190722 -22.999273 0.557732 -4.767841 -13.250506 0.000000 0.000000 0.000000 29.340708 14.868593 4.432795 -1.634957 -8.060264 22.897404 -2.146441 -15.816679 -37.002418 -0.546166 4.733814 -13.151031 2.393591 1.184077 7.723448 -0.419601 2.137513 4.862734 -1.917004 1.303517 0.795947 6.348843 5.647983 -10.438203 -0.825865 5.120498 27.519396 -0.863000 2.266001 10.785854 0.000000 0.000000 0.000000 5.356429 3.356978 -31.038770 26.444699 -37.644187 9.158045 21.003402 -1.441060 -10.278286 0.000000 0.000000 0.000000 -7.125000 0.000000 0.000000 -5.343235 40.914578 -0.540085 0.000000 0.000000 0.000000 -1.967510 7.515595 17.922929 -18.722754 -29.072710 -4.895416 -22.676123 -21.853222 -3.069731 0.000000 0.000000 0.000000 7.125000 0.000000 0.000000 2.996901 26.650950 1.335976
12.055336 15.287967 3.273218 -179.038048 3.605174 178.175386 0.000000 0.000000 0.000000 -17.460559 -16.179608 -18.078763 4.706999 13.043085 39.535109 0.969924 7.672013 -22.891772 0.450312 -4.301767 -11.927634 0.000000 0.000000 0.000000 29.058842 14.972566 4.573126 -1.611062 -8.003944 22.726203 -2.122092 -15.929805 -36.968382 -0.582074 4.884354 -13.579085 1.991260 1.178569 7.657802 -0.489986 2.106556 4.905768 -1.758917 1.282650 0.862734 6.483283 5.705292 -10.477427 -1.015866 5.193349 27.713856 -0.944878 2.282218 10.880634 0.000000 0.000000 0.000000 5.382342 3.611885 -30.796329 26.137496 -37.343566 8.971150 20.740764 -1.390778 -10.279773 0.000000 0.000000 0.000000 -7.125000 0.000000 0.000000 -5.574223 40.892416 -0.566681 0.000000 0.000000 0.000000 -2.044458 7.454228 18.174929 -18.750856 -29.107960 -4.909093 -22.672720 -21.741718 -3.086562 0.000000 0.000000 0.000000 7.125000 0.000000 0.000000 2.999286 26.632806 1.338307
